<svg width="30" height="30" viewBox="0 0 30 30" fill="none" xmlns="http://www.w3.org/2000/svg">
<path d="M21.8793 0.685547H8.12073C3.64288 0.685547 0 4.207 0 8.53558V21.8357C0 26.1641 3.64288 29.6855 8.12073 29.6855H21.8795C26.3571 29.6855 30 26.1641 30 21.8357V8.53558C30 4.207 26.3571 0.685547 21.8793 0.685547V0.685547ZM28.2413 21.8357C28.2413 25.2266 25.3873 27.9854 21.8793 27.9854H8.12073C4.61266 27.9854 1.75873 25.2266 1.75873 21.8357V8.53558C1.75873 5.14445 4.61266 2.38565 8.12073 2.38565H21.8795C25.3873 2.38565 28.2413 5.14445 28.2413 8.53558V21.8357Z" fill="#394B41"/>
<path d="M14.9986 7.25635C10.4754 7.25635 6.79565 10.8134 6.79565 15.1858C6.79565 19.5582 10.4754 23.1153 14.9986 23.1153C19.5217 23.1153 23.2014 19.5582 23.2014 15.1858C23.2014 10.8134 19.5217 7.25635 14.9986 7.25635V7.25635ZM14.9986 21.4152C11.4454 21.4152 8.55438 18.6208 8.55438 15.1858C8.55438 11.7511 11.4454 8.95645 14.9986 8.95645C18.5519 8.95645 21.4427 11.7511 21.4427 15.1858C21.4427 18.6208 18.5519 21.4152 14.9986 21.4152V21.4152Z" fill="#394B41"/>
<path d="M23.3987 4.43994C22.062 4.43994 20.9748 5.49111 20.9748 6.78301C20.9748 8.07512 22.062 9.12629 23.3987 9.12629C24.7353 9.12629 25.8227 8.07512 25.8227 6.78301C25.8227 5.49089 24.7353 4.43994 23.3987 4.43994ZM23.3987 7.42597C23.032 7.42597 22.7335 7.13745 22.7335 6.78301C22.7335 6.42834 23.032 6.14005 23.3987 6.14005C23.7655 6.14005 24.064 6.42834 24.064 6.78301C24.064 7.13745 23.7655 7.42597 23.3987 7.42597Z" fill="#394B41"/>
</svg>
