<svg width="31" height="24" viewBox="0 0 31 24" fill="none" xmlns="http://www.w3.org/2000/svg">
<path d="M30.2809 0.416756C29.987 0.0419277 29.4997 -0.097075 29.0664 0.0697282L1.54755 10.4827C0.997775 10.6919 0.611881 11.1993 0.540241 11.8068C0.469288 12.4115 0.723804 12.9982 1.20125 13.3359L5.13481 16.1475C5.51589 16.42 6.00593 16.4493 6.41402 16.2238L14.9467 11.5123L8.29657 16.7117C7.98438 16.9559 7.79784 17.3454 7.79784 17.7533V22.5695C7.79784 23.0663 8.05808 23.5214 8.47693 23.7577C8.89647 23.994 9.40322 23.9705 9.8017 23.6954L12.7902 21.6197L15.729 23.7179C15.9865 23.9027 16.2932 24 16.6027 24C16.7073 24 16.8123 23.9887 16.9158 23.9662C17.3285 23.8761 17.6935 23.6091 17.9176 23.2338L30.3681 1.7368C30.6105 1.32291 30.5757 0.793261 30.2809 0.416756V0.416756ZM16.537 22.0659L13.4936 19.8929C13.2818 19.7415 13.0379 19.6658 12.7941 19.6658C12.5556 19.6658 12.3169 19.7384 12.1079 19.8836L9.55657 21.6556V18.025L21.2993 8.84391C21.8237 8.43386 21.9558 7.68756 21.6063 7.10806C21.2565 6.52856 20.5564 6.33276 19.9775 6.65246L5.86929 14.4426L2.54227 12.0645L27.8833 2.47567L16.537 22.0659Z" fill="#394B41"/>
</svg>
