<svg width="18" height="30" viewBox="0 0 18 30" fill="none" xmlns="http://www.w3.org/2000/svg">
<path d="M11.1183 30H6.03968C5.19139 30 4.50133 29.3472 4.50133 28.5448V17.7086H1.53835C0.690056 17.7086 0 17.0556 0 16.2534V11.61C0 10.8076 0.690056 10.1548 1.53835 10.1548H4.50133V7.82959C4.50133 5.52406 5.26663 3.56255 6.71425 2.15744C8.1684 0.745926 10.2006 0 12.5911 0L16.4643 0.0059509C17.3112 0.00732422 18 0.660095 18 1.46118V5.7724C18 6.57486 17.3102 7.22763 16.4621 7.22763L13.8543 7.22855C13.059 7.22855 12.8565 7.37938 12.8132 7.42561C12.7418 7.50229 12.6569 7.71904 12.6569 8.31757V10.1546H16.2662C16.5379 10.1546 16.8011 10.218 17.0273 10.3374C17.5154 10.5954 17.8188 11.0831 17.8188 11.6103L17.8168 16.2536C17.8168 17.0556 17.1268 17.7084 16.2785 17.7084H12.6569V28.5448C12.6569 29.3472 11.9666 30 11.1183 30V30ZM6.36051 28.2413H10.7975V16.9212C10.7975 16.3854 11.2584 15.9496 11.8246 15.9496H15.9577L15.9594 11.9135H11.8243C11.2582 11.9135 10.7975 11.4777 10.7975 10.9419V8.31757C10.7975 7.63046 10.8713 6.84906 11.4196 6.26175C12.082 5.55176 13.1261 5.46982 13.8539 5.46982L16.1408 5.4689V1.76422L12.5896 1.75873C8.74788 1.75873 6.36051 4.08508 6.36051 7.82959V10.9419C6.36051 11.4775 5.89983 11.9135 5.33366 11.9135H1.85918V15.9496H5.33366C5.89983 15.9496 6.36051 16.3854 6.36051 16.9212V28.2413ZM16.4607 1.76468H16.4609H16.4607Z" fill="#394B41"/>
</svg>
