<svg width="60" height="60" viewBox="0 0 60 60" fill="none" xmlns="http://www.w3.org/2000/svg">
<path d="M24.8325 18.3762V14.3812H15.3575V18.375" stroke="black" stroke-width="1.25" stroke-linecap="round" stroke-linejoin="round"/>
<path d="M33.695 48.28C42.4625 48.28 49.57 41.1725 49.57 32.405C49.57 23.6375 42.4625 16.53 33.695 16.53C24.9275 16.53 17.82 23.6375 17.82 32.405C17.82 41.1725 24.9275 48.28 33.695 48.28Z" stroke="black" stroke-width="1.25" stroke-linecap="round" stroke-linejoin="round"/>
<path d="M28.3287 47.345H8.46874C7.7195 47.345 7.00095 47.0474 6.47116 46.5176C5.94137 45.9878 5.64374 45.2692 5.64374 44.52V17.4638H28.3287M39.0612 17.4638H54.3925V44.52C54.3925 45.2692 54.0949 45.9878 53.5651 46.5176C53.0353 47.0474 52.3167 47.345 51.5675 47.345H39.0625M53.3937 17.4638V13.0975H43.0387V17.4638M43.0375 17.4638V13.5138L39.9287 8.125H27.4625L24.3512 13.5125V17.4638" stroke="black" stroke-width="1.25" stroke-linecap="round" stroke-linejoin="round"/>
<path d="M33.695 40.6237C38.232 40.6237 41.91 36.9458 41.91 32.4087C41.91 27.8717 38.232 24.1937 33.695 24.1937C29.158 24.1937 25.48 27.8717 25.48 32.4087C25.48 36.9458 29.158 40.6237 33.695 40.6237Z" stroke="black" stroke-width="1.25" stroke-linecap="round" stroke-linejoin="round"/>
<path d="M33.695 45.125C40.718 45.125 46.4113 39.4317 46.4113 32.4087C46.4113 25.3858 40.718 19.6925 33.695 19.6925C26.672 19.6925 20.9788 25.3858 20.9788 32.4087C20.9788 39.4317 26.672 45.125 33.695 45.125Z" stroke="black" stroke-width="1.25" stroke-linecap="round" stroke-linejoin="round"/>
<path d="M43.0375 14.2712H24.3525" stroke="black" stroke-width="1.25" stroke-linecap="round" stroke-linejoin="round"/>
</svg>
