<svg width="213" height="84" viewBox="0 0 213 84" fill="none" xmlns="http://www.w3.org/2000/svg">
<path d="M20.6937 15.3135V11.9844H12.7979V15.3125" stroke="black" stroke-width="1.25" stroke-linecap="round" stroke-linejoin="round"/>
<path d="M28.0792 40.2333C35.3854 40.2333 41.3083 34.3104 41.3083 27.0042C41.3083 19.6979 35.3854 13.775 28.0792 13.775C20.7729 13.775 14.85 19.6979 14.85 27.0042C14.85 34.3104 20.7729 40.2333 28.0792 40.2333Z" stroke="black" stroke-width="1.25" stroke-linecap="round" stroke-linejoin="round"/>
<path d="M23.6073 39.4542H7.05729C6.43293 39.4542 5.83414 39.2061 5.39264 38.7647C4.95115 38.3232 4.70313 37.7244 4.70312 37.1V14.5531H23.6073M32.551 14.5531H45.3271V37.1C45.3271 37.7244 45.0791 38.3232 44.6376 38.7647C44.1961 39.2061 43.5973 39.4542 42.9729 39.4542H32.5521M44.4948 14.5531V10.9146H35.8656V14.5531M35.8646 14.5531V11.2615L33.274 6.77083H22.8854L20.2927 11.2604V14.5531" stroke="black" stroke-width="1.25" stroke-linecap="round" stroke-linejoin="round"/>
<path d="M28.0792 33.8531C31.86 33.8531 34.925 30.7881 34.925 27.0073C34.925 23.2264 31.86 20.1615 28.0792 20.1615C24.2983 20.1615 21.2333 23.2264 21.2333 27.0073C21.2333 30.7881 24.2983 33.8531 28.0792 33.8531Z" stroke="black" stroke-width="1.25" stroke-linecap="round" stroke-linejoin="round"/>
<path d="M28.0792 37.6042C33.9317 37.6042 38.676 32.8598 38.676 27.0073C38.676 21.1548 33.9317 16.4104 28.0792 16.4104C22.2267 16.4104 17.4823 21.1548 17.4823 27.0073C17.4823 32.8598 22.2267 37.6042 28.0792 37.6042Z" stroke="black" stroke-width="1.25" stroke-linecap="round" stroke-linejoin="round"/>
<path d="M35.8646 11.8927H20.2937" stroke="black" stroke-width="1.25" stroke-linecap="round" stroke-linejoin="round"/>
<path d="M2.96875 44.2344H11.7344C17.6406 44.2344 20.5938 46.6042 20.5938 51.3438C20.5938 53.8125 19.7135 55.6823 17.9531 56.9531C16.3802 58.0781 14.2188 58.6406 11.4688 58.6406H7.28125V69.0625H2.96875V44.2344ZM7.28125 47.4688V55.4062H11.3438C14.6042 55.4062 16.2344 54.0625 16.2344 51.375C16.2344 48.7708 14.6562 47.4688 11.5 47.4688H7.28125ZM28.8125 43.7812V54.4688C30.3854 52.25 32.2656 51.1406 34.4531 51.1406C36.0469 51.1406 37.3021 51.6562 38.2188 52.6875C39.0521 53.625 39.4688 54.8594 39.4688 56.3906V69.0625H35.3438V57.5469C35.3438 55.5781 34.5312 54.5938 32.9062 54.5938C32.1562 54.5938 31.3854 54.9062 30.5938 55.5312C29.9167 56.0625 29.3229 56.7552 28.8125 57.6094V69.0625H24.7812V43.7812H28.8125ZM51.4688 51.1094C54.0312 51.1094 56.0365 52.0312 57.4844 53.875C58.7656 55.5104 59.4062 57.6406 59.4062 60.2656C59.4062 63.2969 58.5833 65.6562 56.9375 67.3438C55.5208 68.7917 53.6875 69.5156 51.4375 69.5156C48.8542 69.5156 46.8438 68.5938 45.4062 66.75C44.1354 65.125 43.5 62.9948 43.5 60.3594C43.5 57.3385 44.3281 54.9792 45.9844 53.2812C47.4115 51.8333 49.2396 51.1094 51.4688 51.1094ZM51.4688 54.0156C48.9062 54.0156 47.625 56.1094 47.625 60.2969C47.625 64.5052 48.8958 66.6094 51.4375 66.6094C54 66.6094 55.2812 64.5052 55.2812 60.2969C55.2812 56.1094 54.0104 54.0156 51.4688 54.0156ZM68.3281 45.7656V51.5H72.2656V54.4375H68.3281V64.0781C68.3281 65.7656 69.0521 66.6094 70.5 66.6094C71.2812 66.6094 71.9635 66.5417 72.5469 66.4062L72.3906 69.2812C71.5052 69.4167 70.4583 69.4844 69.25 69.4844C67.4688 69.4844 66.1875 69.0573 65.4062 68.2031C64.7083 67.4427 64.3594 66.3125 64.3594 64.8125V54.4375H61.7344V51.5H64.3594V46.6719L68.3281 45.7656ZM82.5938 51.1094C85.1562 51.1094 87.1615 52.0312 88.6094 53.875C89.8906 55.5104 90.5312 57.6406 90.5312 60.2656C90.5312 63.2969 89.7083 65.6562 88.0625 67.3438C86.6458 68.7917 84.8125 69.5156 82.5625 69.5156C79.9792 69.5156 77.9688 68.5938 76.5312 66.75C75.2604 65.125 74.625 62.9948 74.625 60.3594C74.625 57.3385 75.4531 54.9792 77.1094 53.2812C78.5365 51.8333 80.3646 51.1094 82.5938 51.1094ZM82.5938 54.0156C80.0312 54.0156 78.75 56.1094 78.75 60.2969C78.75 64.5052 80.0208 66.6094 82.5625 66.6094C85.125 66.6094 86.4062 64.5052 86.4062 60.2969C86.4062 56.1094 85.1354 54.0156 82.5938 54.0156ZM109.797 49.0625L109.547 52.2969C108.651 52.2969 107.969 52.375 107.5 52.5312C107.135 52.6562 106.771 52.8802 106.406 53.2031C107.365 54.1927 107.844 55.3646 107.844 56.7188C107.844 58.6354 107.115 60.1198 105.656 61.1719C104.427 62.0677 102.854 62.5156 100.938 62.5156C100.125 62.5156 99.3646 62.4167 98.6562 62.2188C97.8021 62.6458 97.375 63.1562 97.375 63.75C97.375 64.1667 97.5521 64.4635 97.9062 64.6406C98.2604 64.8177 98.8958 64.9479 99.8125 65.0312L103.781 65.3594C106.135 65.5885 107.786 66.1302 108.734 66.9844C109.484 67.6823 109.859 68.6562 109.859 69.9062C109.859 71.6042 109 72.9427 107.281 73.9219C105.708 74.8073 103.625 75.25 101.031 75.25C98.3646 75.25 96.3229 74.8073 94.9062 73.9219C93.7188 73.1719 93.125 72.1927 93.125 70.9844C93.125 69.4844 94.2031 68.3438 96.3594 67.5625C94.7135 67.1979 93.8906 66.3542 93.8906 65.0312C93.8906 63.7292 94.7865 62.5156 96.5781 61.3906C94.9115 60.3281 94.0781 58.7812 94.0781 56.75C94.0781 54.9375 94.8073 53.5104 96.2656 52.4688C97.5052 51.5625 99.0729 51.1094 100.969 51.1094C102.417 51.1094 103.661 51.3906 104.703 51.9531C105.318 50.8385 106.047 50.0677 106.891 49.6406C107.63 49.2552 108.599 49.0625 109.797 49.0625ZM100.953 53.4844C99.9635 53.4844 99.1667 53.8073 98.5625 54.4531C98.0312 55.0365 97.7656 55.7812 97.7656 56.6875C97.7656 57.8646 98.1042 58.7604 98.7812 59.375C99.3438 59.8854 100.068 60.1406 100.953 60.1406C101.974 60.1406 102.776 59.8125 103.359 59.1562C103.891 58.5417 104.156 57.7292 104.156 56.7188C104.156 55.6562 103.807 54.8229 103.109 54.2188C102.536 53.7292 101.818 53.4844 100.953 53.4844ZM98.7812 68.0469C97.2083 68.5469 96.4219 69.3438 96.4219 70.4375C96.4219 71.25 96.9219 71.875 97.9219 72.3125C98.776 72.6875 99.8854 72.875 101.25 72.875C103 72.875 104.339 72.6146 105.266 72.0938C106.005 71.6771 106.375 71.1615 106.375 70.5469C106.375 69.8802 106.135 69.401 105.656 69.1094C105.177 68.8281 104.339 68.625 103.141 68.5L98.7812 68.0469ZM122.469 51.1094L122.203 54.8906C119.964 54.8906 118.302 56.375 117.219 59.3438V69.0625H113.25V51.5H117.031V55.8125C118.167 52.6771 119.979 51.1094 122.469 51.1094ZM125.297 55.9219C126.203 52.6927 128.625 51.0781 132.562 51.0781C137.104 51.0781 139.375 53.0208 139.375 56.9062V63.875C139.375 65.5729 139.469 67.3021 139.656 69.0625H135.953C135.839 68.4062 135.74 67.6406 135.656 66.7656C134.396 68.5781 132.552 69.4844 130.125 69.4844C128.385 69.4844 127.021 68.9531 126.031 67.8906C125.156 66.9531 124.719 65.7448 124.719 64.2656C124.719 61.1406 126.63 59.2083 130.453 58.4688C131.87 58.1979 133.542 58.0312 135.469 57.9688V56.9688C135.469 55.8021 135.193 54.974 134.641 54.4844C134.161 54.0677 133.422 53.8594 132.422 53.8594C131.505 53.8594 130.745 54.1562 130.141 54.75C129.589 55.2917 129.229 56.0208 129.062 56.9375L125.297 55.9219ZM135.469 60.4531C134.125 60.4844 132.781 60.6562 131.438 60.9688C129.521 61.4271 128.562 62.4219 128.562 63.9531C128.562 65.724 129.5 66.6094 131.375 66.6094C133.083 66.6094 134.448 65.6458 135.469 63.7188V60.4531ZM148.312 51.5V54.0938C149.531 52.1042 151.172 51.1094 153.234 51.1094C155.37 51.1094 157.042 51.9688 158.25 53.6875C159.365 55.2917 159.922 57.4531 159.922 60.1719C159.922 63.276 159.161 65.6823 157.641 67.3906C156.401 68.7865 154.87 69.4844 153.047 69.4844C151.036 69.4844 149.5 68.5208 148.438 66.5938V75.2344H144.438V51.5H148.312ZM148.438 57.2188V63.4375C149.281 65.3958 150.464 66.375 151.984 66.375C153.193 66.375 154.135 65.8177 154.812 64.7031C155.469 63.6406 155.797 62.1615 155.797 60.2656C155.797 58.1198 155.406 56.526 154.625 55.4844C154.01 54.6615 153.208 54.25 152.219 54.25C150.562 54.25 149.302 55.2396 148.438 57.2188ZM168.094 43.7812V54.4688C169.667 52.25 171.547 51.1406 173.734 51.1406C175.328 51.1406 176.583 51.6562 177.5 52.6875C178.333 53.625 178.75 54.8594 178.75 56.3906V69.0625H174.625V57.5469C174.625 55.5781 173.812 54.5938 172.188 54.5938C171.438 54.5938 170.667 54.9062 169.875 55.5312C169.198 56.0625 168.604 56.7552 168.094 57.6094V69.0625H164.062V43.7812H168.094ZM198.594 61.1562H186.719C186.74 62.9896 187.167 64.3958 188 65.375C188.76 66.2604 189.807 66.7031 191.141 66.7031C193.026 66.7031 194.26 65.5885 194.844 63.3594L198.5 64.4219C197.396 67.8177 194.927 69.5156 191.094 69.5156C188.292 69.5156 186.161 68.6094 184.703 66.7969C183.422 65.2135 182.781 63.0781 182.781 60.3906C182.781 57.349 183.615 54.9844 185.281 53.2969C186.708 51.8385 188.531 51.1094 190.75 51.1094C193.229 51.1094 195.188 52.0104 196.625 53.8125C197.938 55.4479 198.594 57.6198 198.594 60.3281V61.1562ZM194.656 58.5C194.458 55.4271 193.177 53.8906 190.812 53.8906C189.531 53.8906 188.536 54.3594 187.828 55.2969C187.224 56.099 186.875 57.1667 186.781 58.5H194.656ZM211.875 51.1094L211.609 54.8906C209.37 54.8906 207.708 56.375 206.625 59.3438V69.0625H202.656V51.5H206.438V55.8125C207.573 52.6771 209.385 51.1094 211.875 51.1094Z" fill="#0F3C27"/>
</svg>
